<svg xmlns="http://www.w3.org/2000/svg" xmlns:xlink="http://www.w3.org/1999/xlink" width="180" height="180" viewBox="0 0 180 180"><defs><style>.a{clip-path:url(#b);}.b,.c{fill:none;stroke-linecap:round;stroke-width:12px;}.b{stroke:#4d4d4d;}.c{stroke:#333;}.d{fill:#ffc814;}.e{fill:#fff;}</style><clipPath id="b"><rect width="180" height="180"/></clipPath></defs><g id="a" class="a"><rect class="e" width="180" height="180"/><g transform="translate(-3843 -5136)"><line class="b" y2="91.433" transform="translate(3866.5 5183.568)"/><path class="c" d="M-.239,0-.392,94.733" transform="translate(3933.555 5183.568)"/><path class="c" d="M-.307,7.907V99.34" transform="translate(4000.321 5178.751)"/><line class="c" y2="94.559" transform="translate(3866.5 5183.568)"/><path class="c" d="M-82.909,217.46s13.46-7.6,33.819-7.6,32.842,7.6,32.842,7.6" transform="translate(4016.261 5060.791)"/><path class="c" d="M-57.428,215.346s5.705-5.126,19.675-5.126,26.24,5.439,32.384,12.643" transform="translate(4005.322 4963.499)"/><path class="c" d="M-81.182,219.415s15.141-9.418,33.145-9.561,32.541,9.561,32.541,9.561" transform="translate(3948.392 4963.499)"/><path class="c" d="M-82.909,217.46s13.46-7.6,33.819-7.6,32.842,7.6,32.842,7.6" transform="translate(3949.444 5060.791)"/><path class="d" d="M20.779,2.906a2,2,0,0,1,3.442,0L43.212,34.981A2,2,0,0,1,41.491,38H3.509a2,2,0,0,1-1.721-3.019Z" transform="translate(3988.5 5202.5) rotate(90)"/></g></g></svg>